<svg height="51pt" viewBox="0 0 512 512" width="51pt" xmlns="http://www.w3.org/2000/svg"><path d="m512 256c0 141.386719-114.613281 256-256 256s-256-114.613281-256-256 114.613281-256 256-256 256 114.613281 256 256zm0 0" fill="#ff633e"/><path d="m143.824219 368.175781 142.082031 142.078125c117.480469-13.675781 210.671875-106.867187 224.347656-224.347656l-142.078125-142.082031zm0 0" fill="#e70020"/><path d="m414.640625 256c0 42.375-16.5 82.214844-46.464844 112.175781-29.960937 29.964844-69.800781 46.464844-112.175781 46.464844s-82.214844-16.5-112.179688-46.464844c-29.960937-29.960937-46.460937-69.800781-46.460937-112.175781s16.5-82.214844 46.464844-112.175781c29.960937-29.964844 69.800781-46.464844 112.175781-46.464844s82.214844 16.5 112.175781 46.464844c29.964844 29.960937 46.464844 69.800781 46.464844 112.175781zm0 0" fill="#78777f"/><path d="m414.640625 256c0 42.375-16.5 82.214844-46.464844 112.175781-29.960937 29.964844-69.800781 46.464844-112.175781 46.464844v-317.28125c42.375 0 82.214844 16.5 112.175781 46.464844 29.964844 29.960937 46.464844 69.800781 46.464844 112.175781zm0 0" fill="#57555c"/><path d="m379.121094 256c0 67.996094-55.125 123.121094-123.121094 123.121094s-123.121094-55.125-123.121094-123.121094 55.125-123.121094 123.121094-123.121094 123.121094 55.125 123.121094 123.121094zm0 0" fill="#e1e4fb"/><path d="m379.121094 256c0 68-55.125 123.121094-123.121094 123.121094v-246.242188c68 0 123.121094 55.121094 123.121094 123.121094zm0 0" fill="#c5c9f7"/><path d="m246.703125 197.855469h18.59375v34.238281h-18.59375zm0 0" fill="#ff633e"/><path d="m246.703125 272.507812h18.59375v27.492188h-18.59375zm0 0" fill="#ff633e"/><path d="m229.941406 316.265625h52.117188v18.589844h-52.117188zm0 0" fill="#aeadb3"/><path d="m349.628906 162.371094c-25.003906-25.011719-58.257812-38.785156-93.628906-38.785156s-68.625 13.773437-93.628906 38.785156c-25.011719 25.003906-38.785156 58.257812-38.785156 93.628906s13.773437 68.625 38.785156 93.628906c25.003906 25.011719 58.257812 38.785156 93.628906 38.785156s68.625-13.773437 93.628906-38.785156c25.011719-25.003906 38.785156-58.257812 38.785156-93.628906s-13.773437-68.625-38.785156-93.628906zm-93.628906 207.453125c-59.632812 0-108.699219-46.097657-113.441406-104.527344h24.925781v-18.59375h-24.925781c1.984375-24.410156 11.699218-46.664063 26.691406-64.304687l17.585938 17.582031 13.144531-13.144531-17.585938-17.585938c17.648438-14.992188 39.902344-24.707031 64.308594-26.691406v24.925781h18.59375v-24.925781c24.410156 1.984375 46.664063 11.699218 64.3125 26.691406l-17.589844 17.585938 13.144531 13.144531 17.589844-17.582031c14.988282 17.644531 24.707032 39.898437 26.6875 64.304687h-24.921875v18.59375h24.921875c-4.742187 58.429687-53.808594 104.527344-113.441406 104.527344zm0 0" fill="#97a1f0"/><path d="m256 197.855469h9.296875v34.238281h-9.296875zm0 0" fill="#e70020"/><path d="m256 272.507812h9.296875v27.492188h-9.296875zm0 0" fill="#e70020"/><path d="m256 316.265625h26.058594v18.589844h-26.058594zm0 0" fill="#8b8992"/><path d="m388.414062 256c0 35.371094-13.773437 68.625-38.785156 93.628906-25.003906 25.011719-58.257812 38.785156-93.628906 38.785156v-18.589843c59.632812 0 108.699219-46.097657 113.441406-104.53125h-24.921875v-18.589844h24.921875c-1.980468-24.410156-11.699218-46.664063-26.6875-64.304687l-17.589844 17.582031-13.144531-13.144531 17.589844-17.589844c-17.648437-14.988282-39.902344-24.707032-64.3125-26.6875v24.921875h-9.296875v-43.898438c35.371094 0 68.625 13.777344 93.628906 38.785157 25.011719 25.007812 38.785156 58.261718 38.785156 93.632812zm0 0" fill="#7985eb"/><path d="m283.921875 256c0 15.398438-12.523437 27.921875-27.921875 27.921875s-27.921875-12.523437-27.921875-27.921875 12.523437-27.921875 27.921875-27.921875 27.921875 12.523437 27.921875 27.921875zm0 0" fill="#aeadb3"/><path d="m283.921875 256c0 15.398438-12.523437 27.921875-27.921875 27.921875v-55.847656c15.398438.003906 27.921875 12.527343 27.921875 27.925781zm0 0" fill="#8b8992"/></svg>